<svg xmlns="http://www.w3.org/2000/svg" xmlns:xlink="http://www.w3.org/1999/xlink" width="500" zoomAndPan="magnify" viewBox="0 0 375 374.999991" height="500" preserveAspectRatio="xMidYMid meet" version="1.0"><defs><clipPath id="159d679198"><path d="M 12 5 L 362.984375 5 L 362.984375 370 L 12 370 Z M 12 5 " clip-rule="nonzero"/></clipPath></defs><g clip-path="url(#159d679198)"><path fill="#ffffff" d="M 362.179688 258.175781 L 261.359375 7.460938 C 260.367188 4.988281 256.863281 4.988281 255.871094 7.460938 L 219.558594 97.710938 C 219.277344 98.417969 219.269531 99.210938 219.554688 99.917969 L 283.84375 260.371094 C 284.292969 261.496094 285.382812 262.230469 286.589844 262.230469 L 359.433594 262.238281 C 361.53125 262.238281 362.964844 260.121094 362.179688 258.175781 Z M 119.101562 7.460938 L 226.53125 275.125 C 226.816406 275.835938 226.816406 276.621094 226.527344 277.332031 L 190.207031 367.609375 C 189.210938 370.085938 185.710938 370.085938 184.714844 367.609375 L 119.089844 204.433594 C 118.097656 201.957031 114.59375 201.957031 113.597656 204.429688 L 91.089844 260.363281 C 90.640625 261.484375 89.550781 262.21875 88.34375 262.21875 L 15.5 262.210938 C 13.402344 262.210938 11.96875 260.09375 12.753906 258.144531 L 113.609375 7.460938 C 114.605469 4.984375 118.109375 4.984375 119.101562 7.460938 " fill-opacity="1" fill-rule="nonzero"/></g></svg>