<svg xmlns="http://www.w3.org/2000/svg" xmlns:xlink="http://www.w3.org/1999/xlink" width="512" zoomAndPan="magnify" viewBox="0 0 384 383.999986" height="512" preserveAspectRatio="xMidYMid meet" version="1.0"><path fill="#ffffff" d="M 192 0 C 85.960938 0 0 85.960938 0 192 C 0 298.039062 85.960938 384 192 384 C 298.039062 384 384 298.039062 384 192 C 383.890625 86.003906 297.996094 0.109375 192 0 Z M 320.652344 310.90625 C 305.808594 301.792969 290.011719 294.328125 273.539062 288.652344 C 284.976562 260.574219 291.226562 230.65625 292.003906 200.347656 L 367.09375 200.347656 C 365.148438 241.523438 348.703125 280.691406 320.652344 310.90625 Z M 16.90625 200.347656 L 91.996094 200.347656 C 92.773438 230.65625 99.023438 260.574219 110.460938 288.652344 C 93.988281 294.335938 78.191406 301.792969 63.335938 310.894531 C 35.296875 280.679688 18.851562 241.523438 16.90625 200.347656 Z M 63.355469 73.078125 C 78.203125 82.175781 93.996094 89.632812 110.460938 95.316406 C 99.023438 123.40625 92.773438 153.335938 91.996094 183.652344 L 16.90625 183.652344 C 18.851562 142.46875 35.304688 103.300781 63.355469 73.078125 Z M 183.652344 91.558594 C 166.90625 91.09375 150.257812 88.835938 133.992188 84.835938 C 146.425781 60.355469 163.261719 38.375 183.652344 19.996094 Z M 183.652344 108.253906 L 183.652344 183.652344 L 108.703125 183.652344 C 109.542969 154.972656 115.675781 126.703125 126.792969 100.253906 C 145.378906 105.085938 164.453125 107.765625 183.652344 108.253906 Z M 183.652344 200.347656 L 183.652344 275.746094 C 164.4375 276.222656 145.332031 278.898438 126.726562 283.726562 C 115.648438 257.273438 109.546875 228.996094 108.726562 200.328125 Z M 183.652344 292.441406 L 183.652344 364.007812 C 163.195312 345.664062 146.328125 323.675781 133.90625 299.164062 C 150.203125 295.15625 166.878906 292.902344 183.652344 292.441406 Z M 200.347656 292.441406 C 217.085938 292.902344 233.730469 295.144531 249.996094 299.140625 C 237.5625 323.609375 220.734375 345.574219 200.347656 363.941406 Z M 200.347656 275.746094 L 200.347656 200.347656 L 275.296875 200.347656 C 274.457031 229.007812 268.320312 257.269531 257.203125 283.703125 C 238.613281 278.890625 219.539062 276.222656 200.347656 275.746094 Z M 200.347656 183.652344 L 200.347656 108.253906 C 219.539062 107.773438 238.621094 105.097656 257.203125 100.273438 C 268.320312 126.71875 274.457031 154.992188 275.296875 183.671875 Z M 200.347656 91.558594 L 200.347656 20.023438 C 220.738281 38.398438 237.570312 60.378906 250.003906 84.851562 C 233.734375 88.847656 217.09375 91.097656 200.347656 91.558594 Z M 224.398438 19.738281 C 255.582031 25.621094 284.578125 39.871094 308.28125 60.972656 C 295.09375 68.746094 281.128906 75.125 266.621094 80.011719 C 255.71875 57.875 241.480469 37.546875 224.398438 19.738281 Z M 117.371094 79.996094 C 102.871094 75.109375 88.90625 68.734375 75.714844 60.976562 C 99.414062 39.875 128.410156 25.625 159.601562 19.746094 C 142.519531 37.546875 128.273438 57.863281 117.371094 79.996094 Z M 117.371094 303.976562 C 128.28125 326.125 142.535156 346.453125 159.628906 364.261719 C 128.425781 358.386719 99.402344 344.125 75.691406 323.003906 C 88.890625 315.234375 102.859375 308.855469 117.371094 303.976562 Z M 266.621094 303.976562 C 281.136719 308.863281 295.105469 315.246094 308.296875 323.015625 C 284.574219 344.140625 255.550781 358.402344 224.335938 364.273438 C 241.445312 346.464844 255.707031 326.125 266.621094 303.972656 Z M 292.003906 183.660156 C 291.234375 153.34375 284.976562 123.414062 273.535156 95.328125 C 289.996094 89.644531 305.789062 82.183594 320.632812 73.078125 C 348.691406 103.296875 365.148438 142.46875 367.09375 183.660156 Z M 292.003906 183.660156 " fill-opacity="1" fill-rule="nonzero"/></svg>